<?xml version="1.0" encoding="UTF-8"?>
<svg version="1.1" xmlns="http://www.w3.org/2000/svg" width="1772" height="340">
<path d="M0 0 C1.92977555 -0.00706926 3.85954557 -0.01581849 5.78930664 -0.02610779 C11.00020551 -0.04849962 16.21079917 -0.04568581 21.42172766 -0.03678632 C25.78526726 -0.03165481 30.1487506 -0.03898657 34.5122844 -0.04625839 C44.81325323 -0.06322534 55.11407381 -0.05972427 65.41503906 -0.04296875 C76.01246585 -0.02605297 86.60948054 -0.04188196 97.20686233 -0.07419163 C106.33339305 -0.10095418 115.45979601 -0.10814548 124.586362 -0.09967655 C130.02495163 -0.09476649 135.4632935 -0.0968584 140.90185165 -0.11746407 C146.01897748 -0.13592595 151.13551436 -0.12973484 156.25260925 -0.10526466 C158.12052752 -0.10028984 159.98849149 -0.10365897 161.85637283 -0.11641312 C179.41719715 -0.22674964 192.68310413 3.27862265 205.93017578 15.62719727 C220.20655753 30.52429127 220.83592527 48.58384848 220.8293457 67.97998047 C220.83234148 69.74506704 220.83574497 71.51015296 220.83952332 73.27523804 C220.84832454 78.05015544 220.85069978 82.82505491 220.8513391 87.59997964 C220.85205176 90.58832944 220.85419015 93.57667474 220.85683632 96.56502342 C220.86607662 107.00494042 220.87017282 117.44484468 220.86938477 127.88476562 C220.8687842 137.5930622 220.87933535 147.30130317 220.89512843 157.00958568 C220.90823277 165.36487758 220.91356745 173.72015137 220.91292936 182.07545346 C220.91267524 187.05675953 220.91547873 192.03801614 220.92610741 197.0193119 C220.93583733 201.70695027 220.93583422 206.39449236 220.92859077 211.08213425 C220.92755102 212.79447636 220.92987125 214.50682463 220.93595123 216.21915627 C220.99660957 234.498266 219.24415197 250.35183657 206.68408203 264.53344727 C206.20841797 265.13672852 205.73275391 265.74000977 205.24267578 266.36157227 C201.47240613 270.73232873 196.94220086 273.24848492 191.87158203 275.84594727 C190.89427124 276.35266968 190.89427124 276.35266968 189.8972168 276.86962891 C178.92832169 282.20617669 167.41778533 281.82686263 155.49731445 281.80810547 C153.66473687 281.81245861 151.83216111 281.81764375 149.99958801 281.82359314 C145.04489919 281.83693049 140.0902869 281.83756763 135.13558364 281.83502984 C130.98828821 281.83395642 126.84100802 281.83885302 122.69371587 281.84363526 C112.9029766 281.85471252 103.1122757 281.85517807 93.3215332 281.84912109 C83.24682034 281.84308392 73.17224723 281.85538994 63.0975582 281.87669116 C54.42460469 281.89434923 45.75169549 281.90030185 37.07872468 281.89705342 C31.90902898 281.89524693 26.73943295 281.89781307 21.56975365 281.91176796 C16.70476902 281.92441009 11.84000103 281.92234221 6.97501945 281.90935707 C5.19859491 281.90700549 3.42215482 281.90967456 1.64574814 281.91798019 C-16.31071555 281.99582421 -32.07897468 279.65476531 -45.69091797 266.84594727 C-58.81414613 252.78382148 -60.76917877 238.83464997 -60.7199707 220.52050781 C-60.72568009 218.59925948 -60.73264654 216.67801455 -60.74076843 214.7567749 C-60.75865393 209.56032968 -60.7575399 204.36405375 -60.75182605 199.16758704 C-60.74872694 194.81897394 -60.75483481 190.47039302 -60.76086479 186.12178451 C-60.77489385 175.8563901 -60.77336275 165.59107894 -60.76196289 155.32568359 C-60.75048848 144.76014525 -60.76454976 134.19486095 -60.79135936 123.62935609 C-60.81356355 114.5360148 -60.82014297 105.44275297 -60.81428295 96.34938651 C-60.81092284 90.9281565 -60.81326521 85.50708922 -60.83053398 80.08588219 C-60.84607591 74.98445781 -60.84196753 69.88340766 -60.82322884 64.78199768 C-60.81956268 62.91849651 -60.82259327 61.05496716 -60.83311462 59.19149208 C-60.92225225 42.0872507 -58.12431353 27.79610435 -46.06591797 14.78344727 C-32.3717404 2.06524672 -17.85889183 -0.06917688 0 0 Z " fill="#FEFEFE" transform="translate(112.31591796875,33.466552734375)"/>
<path d="M0 0 C12.21 0 24.42 0 37 0 C39.00780408 6.02341225 40.8082185 11.86212095 42.26831055 18.00805664 C42.47357361 18.85793152 42.67883667 19.7078064 42.89031982 20.58343506 C43.55950275 23.35812922 44.2231557 26.13411328 44.88671875 28.91015625 C45.35291343 30.84793712 45.81945633 32.78563424 46.28633118 34.72325134 C47.50795691 39.79729718 48.72487942 44.87245943 49.9407959 49.94787598 C51.18488241 55.13716278 52.43345517 60.32536977 53.68164062 65.51367188 C56.12546325 75.67473477 58.56431406 85.83698384 61 96 C64.21376391 84.66966638 67.23132723 73.3103957 70.01680756 61.86733818 C70.62798444 59.3571626 71.24290898 56.84792897 71.85870361 54.33888245 C73.38150631 48.13148129 74.8989484 41.92277379 76.4151001 35.71374512 C77.70967479 30.41237935 79.0069726 25.11169673 80.30835724 19.81199837 C80.91438484 17.3391567 81.51628519 14.86533324 82.11810303 12.39146423 C82.48574231 10.89300234 82.85358939 9.3945914 83.22167969 7.89624023 C83.38789322 7.20810745 83.55410675 6.51997467 83.72535706 5.81098938 C84.88610081 1.11389919 84.88610081 1.11389919 86 0 C88.95705321 -0.08868299 91.89065056 -0.11520296 94.84765625 -0.09765625 C96.17729652 -0.09553383 96.17729652 -0.09553383 97.53379822 -0.09336853 C100.37673254 -0.08775215 103.21958931 -0.07519691 106.0625 -0.0625 C107.98502491 -0.05748711 109.90755104 -0.05292384 111.83007812 -0.04882812 C116.55341549 -0.03777741 121.27669458 -0.02050183 126 0 C128.87381805 11.79454076 131.74272226 23.59026471 134.60533142 35.38753128 C135.93466012 40.86522968 137.26568818 46.34250352 138.60058594 51.81884766 C139.88838519 57.10224323 141.17173863 62.3867004 142.45199585 67.67192841 C142.94161263 69.68976164 143.43283948 71.70720488 143.9256897 73.72425079 C144.61486208 76.54595094 145.29833533 79.36897408 145.98046875 82.19238281 C146.28904312 83.44718697 146.28904312 83.44718697 146.60385132 84.7273407 C146.78896271 85.49852737 146.9740741 86.26971405 147.16479492 87.06427002 C147.32703049 87.73164814 147.48926605 88.39902626 147.65641785 89.08662796 C148 91 148 91 148 95 C148.66 95 149.32 95 150 95 C150.0817749 93.7536377 150.1635498 92.50727539 150.24780273 91.22314453 C151.1264931 82.50871019 153.19654098 73.98056115 155.03515625 65.4296875 C155.43776055 63.53835866 155.83988822 61.64692831 156.24156189 59.75540161 C157.29389053 54.80610764 158.35263959 49.85820904 159.41278076 44.9105835 C160.6867382 38.95846765 161.95262786 33.00463129 163.21988678 27.05108643 C165.14044985 18.03273233 167.07117928 9.01660936 169 0 C181.54 0 194.08 0 207 0 C205.81349554 6.52577455 204.68042952 12.71267734 202.86791992 19.03027344 C202.56195798 20.12038601 202.56195798 20.12038601 202.24981499 21.23252106 C201.58143629 23.60950354 200.90597493 25.98440924 200.23046875 28.359375 C199.75208674 30.05583631 199.27418742 31.75243379 198.79673767 33.44915771 C197.7870507 37.0338961 196.77435334 40.61776352 195.75909424 44.20092773 C194.181522 49.7686925 192.6102376 55.33821738 191.04052734 60.90820312 C190.78123192 61.82826141 190.52193649 62.7483197 190.25478363 63.69625854 C189.73301741 65.54769265 189.21127355 67.39913306 188.68955231 69.25057983 C187.91182125 72.00971811 187.13342985 74.76866942 186.35491943 77.52758789 C181.68287951 94.090513 177.09025482 110.67463082 172.54370117 127.27246094 C172.18242882 128.58697235 172.18242882 128.58697235 171.81385803 129.92803955 C171.37674004 131.5186386 170.94131859 133.10970541 170.50804138 134.70135498 C169.11268258 139.77463485 169.11268258 139.77463485 168 142 C154.8 142 141.6 142 128 142 C126.11233741 136.33701223 124.30328243 130.74592291 122.73168945 125.00170898 C122.52642639 124.25912338 122.32116333 123.51653778 122.10968018 122.75144958 C121.44194781 120.33361613 120.7775828 117.91487184 120.11328125 115.49609375 C119.64695301 113.8049604 119.18041211 112.11388567 118.71366882 110.42286682 C117.49339617 105.99959463 116.27599054 101.57553843 115.0592041 97.15130615 C113.81400481 92.62577926 112.56606275 88.10100889 111.31835938 83.57617188 C108.87623908 74.71818132 106.4371505 65.85935911 104 57 C100.94411955 65.71297532 98.55715406 74.60555881 96.11328125 83.50390625 C95.64695301 85.1950396 95.18041211 86.88611433 94.71366882 88.57713318 C93.49339617 93.00040537 92.27599054 97.42446157 91.0592041 101.84869385 C89.59458121 107.17168939 88.12635712 112.49369263 86.65874481 117.81586456 C84.43642101 125.87649101 82.21864187 133.93835527 80 142 C66.8 142 53.6 142 40 142 C36.6250161 133.00004294 36.6250161 133.00004294 35.6815033 129.66691589 C35.46464874 128.90715454 35.24779419 128.14739319 35.02436829 127.36460876 C34.79839462 126.56003738 34.57242096 125.755466 34.33959961 124.92651367 C34.09187805 124.0549765 33.84415649 123.18343933 33.58892822 122.28549194 C32.77355564 119.41387464 31.96294947 116.54093494 31.15234375 113.66796875 C30.57554571 111.63323983 29.99843698 109.59859897 29.42103577 107.56404114 C27.89797348 102.19432553 26.37888952 96.82349262 24.86071777 91.45239258 C23.0552763 85.06758 21.24534253 78.68403988 19.43586159 72.30037117 C17.96480245 67.11018888 16.49480872 61.91971075 15.0274353 56.72848511 C12.34198249 47.2320072 9.64366262 37.73978438 6.89892578 28.26025391 C6.42325733 26.61323885 5.94763434 24.96621066 5.47206116 23.31916809 C4.60258127 20.30855656 3.72639646 17.30001258 2.84617615 14.29252625 C2.46303021 12.96763415 2.0801255 11.64267226 1.69750977 10.31762695 C1.3672731 9.18533157 1.03703644 8.05303619 0.6967926 6.88642883 C0 4 0 4 0 0 Z " fill="#FFFFFF" transform="translate(1148,67)"/>
<path d="M0 0 C11.55 0 23.1 0 35 0 C35.33 15.84 35.66 31.68 36 48 C38.64 45.69 41.28 43.38 44 41 C56.12501419 34.93749291 70.56809415 33.53473246 83.6875 37.625 C97.67298758 43.26240862 107.41819932 53.58600405 114 67 C120.06272592 81.57728952 120.76678591 102.27488635 115 117 C114.62101562 117.97582031 114.24203125 118.95164062 113.8515625 119.95703125 C108.2263877 132.62180341 98.48677295 142.78522044 85.55078125 147.984375 C73.96149503 152.04541414 61.52753035 152.69510355 50 148 C44.61140067 145.079077 40.11967986 141.51835856 36 137 C35.505 143.435 35.505 143.435 35 150 C23.45 150 11.9 150 0 150 C0 100.5 0 51 0 0 Z M41.0625 73.75 C34.73395943 81.89948857 33.98892584 89.78585304 35 100 C36.64921361 107.23494303 40.11385924 112.50103891 46 117 C51.77523545 120.44292882 57.43797235 120.93743252 64 120 C72.61527033 117.32629542 77.06689011 112.30753219 81.3125 104.625 C83.66054585 95.65973404 83.59130545 86.64162275 79.3125 78.25 C74.80976295 71.92182901 69.61957164 67.83658998 62 66 C53.98092109 64.96048977 46.53702916 67.87037883 41.0625 73.75 Z " fill="#FFFFFF" transform="translate(1518,59)"/>
<path d="M0 0 C11.55 0 23.1 0 35 0 C35.33 15.84 35.66 31.68 36 48 C38.64 45.69 41.28 43.38 44 41 C56.12501419 34.93749291 70.56809415 33.53473246 83.6875 37.625 C97.67298758 43.26240862 107.41819932 53.58600405 114 67 C120.06272592 81.57728952 120.76678591 102.27488635 115 117 C114.62101563 117.97582031 114.24203125 118.95164062 113.8515625 119.95703125 C108.2263877 132.62180341 98.48677295 142.78522044 85.55078125 147.984375 C73.96149503 152.04541414 61.52753035 152.69510355 50 148 C44.61140067 145.079077 40.11967986 141.51835856 36 137 C35.505 143.435 35.505 143.435 35 150 C23.45 150 11.9 150 0 150 C0 100.5 0 51 0 0 Z M41.0625 73.75 C34.73395943 81.89948857 33.98892584 89.78585304 35 100 C36.64921361 107.23494303 40.11385924 112.50103891 46 117 C51.77523545 120.44292882 57.43797235 120.93743252 64 120 C72.61527033 117.32629542 77.06689011 112.30753219 81.3125 104.625 C83.66054585 95.65973404 83.59130545 86.64162275 79.3125 78.25 C74.80976295 71.92182901 69.61957164 67.83658998 62 66 C53.98092109 64.96048977 46.53702916 67.87037883 41.0625 73.75 Z " fill="#FFFFFF" transform="translate(700,59)"/>
<path d="M0 0 C3.5397056 2.41967935 6.9617681 4.9617681 10 8 C10.33 4.37 10.66 0.74 11 -3 C22.55 -3 34.1 -3 46 -3 C46 34.29 46 71.58 46 110 C34.45 110 22.9 110 11 110 C10.67 105.38 10.34 100.76 10 96 C9.360625 96.86625 8.72125 97.7325 8.0625 98.625 C1.22984932 106.7208298 -7.77926981 110.35894874 -18.16796875 111.28125 C-33.08252695 111.70890758 -45.67573957 107.22669759 -56.6875 97.125 C-68.10748567 85.05151014 -72.73827846 69.88333512 -73.375 53.5 C-72.78705294 35.78141353 -67.4353125 20.18284526 -54.578125 7.63671875 C-40.43455691 -4.32225363 -16.88537931 -9.90227329 0 0 Z M-29.65234375 32.34375 C-35.8426991 39.95160701 -37.72723079 48.44995039 -37 58 C-35.76662159 65.51342444 -32.85265005 71.06786384 -27 76 C-21.05804112 79.90251103 -15.00830246 81.05952289 -8 80 C-0.82593204 78.121357 3.95790592 74.15625168 8 68 C11.94269001 60.33911478 12.25023017 51.52683768 9.875 43.3125 C7.5076378 37.16836926 4.08715485 31.8407405 -1.75 28.5625 C-11.25511218 24.50698547 -21.78344861 25.15434163 -29.65234375 32.34375 Z " fill="#FFFFFF" transform="translate(913,99)"/>
<path d="M0 0 C9.08753273 7.73286947 12.66264033 17.38608709 14 29 C14 30.65 14 32.3 14 34 C1.13 34 -11.74 34 -25 34 C-25.99 30.7 -26.98 27.4 -28 24 C-31.55185634 20.44814366 -34.27774262 18.85147464 -39.25 18.75 C-43.51858665 18.80498984 -46.40760993 19.54666044 -50 22 C-51.90295169 25.00431757 -52.29618885 27.40885524 -52.3125 30.9375 C-52.32925781 31.77152344 -52.34601563 32.60554688 -52.36328125 33.46484375 C-51.90491121 36.66357662 -50.88020193 38.37065709 -49 41 C-41.34683489 46.19999228 -32.33635831 48.6275534 -23.5 51 C-10.14466702 54.58573218 3.48635571 58.64698084 11.25 70.8125 C16.5938273 80.33906124 17.55125185 90.57867014 15.3125 101.2890625 C11.45759833 113.97811383 2.88537503 123.09570991 -8.75 129.3125 C-25.01373427 136.82986836 -43.93847661 137.1998786 -61 132 C-72.45281769 127.57013656 -81.65050536 121.56843619 -87 110.1875 C-90.00925852 102.94647168 -90 98.41435852 -90 90 C-77.79 90 -65.58 90 -53 90 C-51.68 93.63 -50.36 97.26 -49 101 C-45.09499573 105.10025448 -42.15278301 105.83752581 -36.6875 106.25 C-31.7413306 105.91466648 -27.90689592 104.65264313 -24.125 101.375 C-22.37703866 97.6848594 -21.88326273 94.07121216 -22 90 C-23.92355422 85.19111444 -27.33036661 82.2267017 -32.01953125 80.07202148 C-39.94384932 76.87289017 -48.06489066 74.50903749 -56.27929688 72.17578125 C-68.96347661 68.41916873 -79.77779822 63.03060096 -87.4453125 51.90234375 C-92.23209916 42.41245552 -91.6772571 27.74214512 -88.4375 17.8125 C-83.35223582 6.51191293 -74.29274359 -1.53652356 -62.9375 -6.375 C-61.30285264 -6.94954168 -59.65686201 -7.4930696 -58 -8 C-57.29230469 -8.22429687 -56.58460938 -8.44859375 -55.85546875 -8.6796875 C-37.39844865 -13.39899562 -15.9321765 -10.2251282 0 0 Z " fill="#FFFFFF" transform="translate(507,75)"/>
<path d="M0 0 C10.97272921 7.53030436 17.51466523 20.43323252 20.3125 33.1875 C21.53208226 41.04575173 22.52982835 51.41051495 20 59 C-5.08 59 -30.16 59 -56 59 C-52.70371044 67.47704501 -52.70371044 67.47704501 -46.27734375 72.12890625 C-39.84715125 74.58848245 -33.35631279 74.74193885 -27 72 C-24.14445983 69.56272118 -24.14445983 69.56272118 -22 67 C-21 66 -21 66 -17.39819336 65.88647461 C-15.79540144 65.88663375 -14.1926044 65.89232937 -12.58984375 65.90234375 C-11.74780899 65.9037587 -10.90577423 65.90517365 -10.03822327 65.90663147 C-7.33794665 65.91224737 -4.63775172 65.92480252 -1.9375 65.9375 C-0.11132932 65.94251295 1.71484266 65.94707621 3.54101562 65.95117188 C8.02737542 65.96222196 12.51367384 65.97949721 17 66 C15.42654815 78.07316598 9.20046377 86.2328429 0 94 C-13.8554968 104.29202238 -30.83649778 106.65596297 -47.6640625 104.5390625 C-61.64485297 101.90410199 -73.25668083 95.73654595 -82.03515625 84.36328125 C-92.77544484 68.37826574 -95.0992562 49.7698987 -91.54882812 31.07885742 C-88.58332859 17.52853176 -81.23627706 5.97429989 -69.6875 -1.8125 C-48.08496346 -14.78003934 -20.9897442 -13.20546821 0 0 Z M-53.8359375 29.12109375 C-55.3753287 31.36120031 -55.3753287 31.36120031 -56 36 C-42.8 36 -29.6 36 -16 36 C-17.22360472 29.88197639 -19.51382833 27.16187011 -24 23 C-35.32670396 16.02972064 -45.83435138 19.90001456 -53.8359375 29.12109375 Z " fill="#FFFFFF" transform="translate(1465,105)"/>
<path d="M0 0 C1.41732422 0.63615234 1.41732422 0.63615234 2.86328125 1.28515625 C15.98907304 7.80266559 24.9561963 17.86764441 30.3828125 31.46484375 C35.35567212 47.47884275 34.75117425 65.50124745 27.71484375 80.79296875 C19.48144207 95.58557065 6.76028195 104.88367634 -9.28515625 109.68359375 C-25.70505114 113.65835963 -42.96965209 110.88191173 -57.734375 103.01953125 C-70.9711844 94.83360965 -80.01552178 82.48847604 -83.60742188 67.31591797 C-85.76776402 54.5715115 -85.39216873 39.84858129 -80 28 C-79.649375 27.20078125 -79.29875 26.4015625 -78.9375 25.578125 C-72.68099988 12.97822892 -61.74901298 3.77014033 -48.625 -0.875 C-33.55689207 -5.91997627 -14.67596942 -6.79795986 0 0 Z M-44.51953125 35.61328125 C-49.65003138 43.88435138 -49.79413211 53.675395 -48 63 C-45.59668118 70.34018556 -40.79692551 75.57360011 -33.9453125 79.20703125 C-27.91572684 81.6648744 -22.17458334 81.45473558 -16.140625 79.14453125 C-9.75775913 75.73179457 -5.67940251 70.12099497 -3.4453125 63.30859375 C-1.63231864 53.90965189 -1.88224545 43.19587367 -7.25390625 35.11328125 C-11.33872584 29.80412882 -15.98183926 26.56899503 -22.67578125 25.62109375 C-32.1333109 25.21558418 -38.57259476 28.25105553 -44.51953125 35.61328125 Z " fill="#FFFFFF" transform="translate(635,99)"/>
<path d="M0 0 C11.88 0 23.76 0 36 0 C36 9.24 36 18.48 36 28 C43.26 28 50.52 28 58 28 C58 37.57 58 47.14 58 57 C50.74 57 43.48 57 36 57 C36.07385276 64.08477132 36.1565509 71.16824535 36.26245117 78.25244141 C36.29576665 80.6638321 36.32377768 83.07530202 36.34643555 85.48681641 C36.37985972 88.94728458 36.43216953 92.40702227 36.48828125 95.8671875 C36.49467117 96.95055389 36.5010611 98.03392029 36.50764465 99.15011597 C36.53733589 100.65144577 36.53733589 100.65144577 36.56762695 102.18310547 C36.58428154 103.50881058 36.58428154 103.50881058 36.60127258 104.86129761 C36.79864265 105.91995529 36.79864265 105.91995529 37 107 C40.0211434 109.0140956 40.80660017 109.26836596 44.23046875 109.4140625 C44.95387451 109.44967285 45.67728027 109.4852832 46.42260742 109.52197266 C47.79122925 109.57297119 47.79122925 109.57297119 49.1875 109.625 C52.095625 109.74875 55.00375 109.8725 58 110 C58 120.23 58 130.46 58 141 C21.098628 141.58112397 21.098628 141.58112397 8.81640625 131.14453125 C-0.26543691 121.68506467 -0.15556448 109.29778008 -0.09765625 96.94140625 C-0.0962413 95.79711655 -0.09482635 94.65282684 -0.09336853 93.47386169 C-0.08779301 89.83671399 -0.07524498 86.19962895 -0.0625 82.5625 C-0.05748184 80.0891936 -0.05291948 77.61588623 -0.04882812 75.14257812 C-0.03783159 69.09502812 -0.02058381 63.04752467 0 57 C-3.3 57 -6.6 57 -10 57 C-10 47.43 -10 37.86 -10 28 C-6.7 28 -3.4 28 0 28 C0 18.76 0 9.52 0 0 Z " fill="#FFFFFF" transform="translate(1001,68)"/>
<path d="M0 0 C25.50458992 -1.90611287 25.50458992 -1.90611287 30.4453125 2.0625 C32.64702815 4.92229302 34.294773 7.82297615 36 11 C37.61569445 12.87840899 39.28450497 14.7122736 41 16.5 C45.08735886 20.9405874 48.91447698 25.5314732 52.69921875 30.23046875 C55.90253744 34.08641603 59.30657789 37.74178419 62.73828125 41.39453125 C65.12786962 44.14730404 67.04232461 46.93133263 69 50 C68.16597656 50.95519531 67.33195312 51.91039062 66.47265625 52.89453125 C60.67057749 59.5551515 54.93897712 66.24886592 49.3828125 73.1171875 C46.44204275 76.6750368 43.41150909 80.14886599 40.375 83.625 C35.72859662 88.94658492 31.22388898 94.33230897 27 100 C30.43793339 99.81870185 30.43793339 99.81870185 34 99 C35.11002163 97.14209966 35.11002163 97.14209966 36 95 C36.86859516 93.8737974 37.77872653 92.77869831 38.72265625 91.71484375 C39.25640869 91.10761475 39.79016113 90.50038574 40.34008789 89.87475586 C41.19268188 88.91581421 41.19268188 88.91581421 42.0625 87.9375 C43.25119122 86.58437887 44.43868682 85.2302065 45.625 83.875 C46.20507812 83.21242188 46.78515625 82.54984375 47.3828125 81.8671875 C50.22534063 78.58523474 52.942708 75.20420566 55.671875 71.828125 C58.98591298 67.80234731 62.4026976 63.86590175 65.84008789 59.94506836 C68.87097765 56.45217435 71.51489986 52.90178431 74 49 C73.45472656 48.40574219 72.90945313 47.81148437 72.34765625 47.19921875 C68.27614316 42.72403427 64.30526067 38.20456389 60.5 33.5 C57.5918662 29.9052235 54.61458668 26.41739372 51.5 23 C47.51185263 18.62140463 43.74350129 14.09660579 40.01953125 9.4921875 C38.34920974 7.43093968 36.65475103 5.39700262 34.9375 3.375 C33 1 33 1 33 0 C39.11418419 -1.1569547 45.65781483 -2.25891016 51.08496094 1.40917969 C55.31021375 5.21376312 58.88859252 9.5793501 62.42089844 14.02197266 C64.36975397 16.46316429 66.44777043 18.76438982 68.5625 21.0625 C69.24183594 21.82433594 69.92117188 22.58617187 70.62109375 23.37109375 C73.13721266 26.15163238 75.69137836 28.89306675 78.25537109 31.62939453 C80.65440738 34.19007912 83.04450203 36.75903813 85.43505859 39.32763672 C86.7759515 40.76057219 88.13076013 42.18046387 89.48828125 43.59765625 C90.13152344 44.28730469 90.77476562 44.97695312 91.4375 45.6875 C91.97246094 46.24824219 92.50742187 46.80898437 93.05859375 47.38671875 C94 49 94 49 93.91796875 50.94140625 C92.70272003 53.66666614 91.04442056 55.20559689 88.875 57.25 C86.0701498 59.96267202 83.3461368 62.6572106 80.8125 65.625 C77.39801289 69.60196643 73.83323186 73.42581017 70.25 77.25 C65.75672104 82.0495844 61.26601732 86.85094979 56.8125 91.6875 C55.95269531 92.61949219 55.09289062 93.55148438 54.20703125 94.51171875 C52.01641712 96.8427424 52.01641712 96.8427424 50.67021179 99.12713623 C49 101 49 101 46.74104309 101.48101807 C45.8594603 101.47213562 44.9778775 101.46325317 44.06958008 101.45410156 C43.06876907 101.45379944 42.06795807 101.45349731 41.03681946 101.45318604 C39.95861435 101.43254089 38.88040924 101.41189575 37.76953125 101.390625 C36.66397385 101.38496521 35.55841644 101.37930542 34.4193573 101.37347412 C30.88330036 101.35105795 27.34825141 101.30084996 23.8125 101.25 C21.41733233 101.22994187 19.02214879 101.21168991 16.62695312 101.1953125 C10.75095733 101.151176 4.87555067 101.08421128 -1 101 C2.14280633 97.30334957 5.2819525 93.61989756 8.62109375 90.09765625 C9.24693359 89.43443359 9.87277344 88.77121094 10.51757812 88.08789062 C11.15115234 87.41951172 11.78472656 86.75113281 12.4375 86.0625 C16.80888737 81.44950064 21.08646999 76.78378591 25.25219727 71.98413086 C28.76720014 67.99384892 32.44736023 64.15532178 36.1015625 60.29296875 C38.91203376 57.30454189 41.6481198 54.37443681 44 51 C42.68383888 48.10940624 41.24755763 45.97437707 39.05859375 43.6796875 C38.47964355 43.06722168 37.90069336 42.45475586 37.30419922 41.82373047 C36.38018311 40.85910889 36.38018311 40.85910889 35.4375 39.875 C34.15687412 38.52147446 32.87692557 37.16730775 31.59765625 35.8125 C30.97648926 35.15636719 30.35532227 34.50023437 29.71533203 33.82421875 C27.56643871 31.53891689 25.4645098 29.21463528 23.375 26.875 C19.91578545 23.00274491 16.40443058 19.1830412 12.875 15.375 C0 1.46058026 0 1.46058026 0 0 Z " fill="#6E4EE2" transform="translate(191,149)"/>
<path d="M0 0 C1.20849609 0.03609375 2.41699219 0.0721875 3.66210938 0.109375 C6.63220002 0.20329091 9.59568135 0.3344871 12.5625 0.5 C9.32417484 4.95722611 6.1235234 9.18489511 2.125 13 C-1.32117691 16.30020625 -4.45285191 19.77979663 -7.57495117 23.38134766 C-10.59117062 26.81230222 -13.7352329 30.1199491 -16.875 33.4375 C-22.15890283 39.04442764 -27.381858 44.68520408 -32.4375 50.5 C-27.17391488 56.78706001 -21.60169486 62.77926527 -16.02539062 68.78710938 C-14.5087849 70.42310349 -12.99573135 72.06228163 -11.484375 73.703125 C-11.00218506 74.22648437 -10.51999512 74.74984375 -10.02319336 75.2890625 C-9.04969653 76.3460298 -8.07655168 77.40332139 -7.10375977 78.4609375 C-4.29286587 81.51079191 -1.46006175 84.53784503 1.39453125 87.546875 C2.03600098 88.22572754 2.6774707 88.90458008 3.33837891 89.60400391 C4.59054005 90.9278085 5.84659166 92.24794648 7.10693359 93.56396484 C7.6736377 94.16418457 8.2403418 94.7644043 8.82421875 95.3828125 C9.58158325 96.17776123 9.58158325 96.17776123 10.35424805 96.98876953 C11.5625 98.5 11.5625 98.5 12.5625 101.5 C-10.3809016 103.74909215 -10.3809016 103.74909215 -16.453125 98.9921875 C-19.09954558 96.3359335 -21.25001953 93.36745421 -23.29345703 90.23095703 C-24.96505142 87.70180547 -26.91841242 85.43733077 -28.875 83.125 C-29.58527344 82.24070312 -30.29554688 81.35640625 -31.02734375 80.4453125 C-33.9278033 76.9008287 -36.92602434 73.450162 -39.9375 70 C-45.23068605 63.93112833 -50.38885382 57.77493234 -55.4375 51.5 C-53.73707897 47.35586014 -50.79600595 44.25616765 -47.875 40.9375 C-46.77894897 39.67664893 -45.68390511 38.41492167 -44.58984375 37.15234375 C-43.78135986 36.22010986 -43.78135986 36.22010986 -42.95654297 35.26904297 C-40.90614567 32.88119681 -38.91816779 30.44585215 -36.9375 28 C-32.06271863 21.9995873 -27.09563579 16.05812658 -21.94262695 10.29345703 C-20.371942 8.48984405 -20.371942 8.48984405 -18.98510742 6.31201172 C-13.81931215 -0.92538677 -8.4118593 -0.47726861 0 0 Z " fill="#492DCA" transform="translate(187.4375,100.5)"/>
<path d="M0 0 C1.57043101 0.01330874 3.14079971 0.03717648 4.7109375 0.0703125 C5.51273438 0.07933594 6.31453125 0.08835937 7.140625 0.09765625 C9.12252273 0.12125027 11.10426731 0.15712185 13.0859375 0.1953125 C8.97225714 5.9557624 4.44521282 11.15182409 -0.3515625 16.35546875 C-3.50834429 19.85391442 -6.45831063 23.49185705 -9.4140625 27.16015625 C-12.97912277 31.48836223 -16.67881513 35.69710385 -20.39770508 39.89355469 C-23.56501336 43.5025542 -26.34653616 47.13576117 -28.9140625 51.1953125 C-27.77130859 52.41154297 -27.77130859 52.41154297 -26.60546875 53.65234375 C-20.88332963 59.77668985 -15.37524945 65.97650565 -10.125 72.515625 C-7.804713 75.32784565 -5.38335116 78.01328513 -2.9140625 80.6953125 C3.10391536 87.23904193 8.79592508 94.04799164 14.0859375 101.1953125 C-0.39496138 103.41177661 -0.39496138 103.41177661 -5.99560547 99.88427734 C-9.98329424 96.39085451 -13.24133989 92.29026365 -16.45214844 88.08837891 C-18.37141295 85.6030788 -20.46847788 83.31048866 -22.6015625 81.0078125 C-23.29636719 80.23050781 -23.99117187 79.45320313 -24.70703125 78.65234375 C-27.25591979 75.81473155 -29.8328889 73.00350499 -32.4140625 70.1953125 C-36.68810711 65.5450263 -40.9249119 60.86311552 -45.13671875 56.15625 C-46.36196051 54.80444481 -47.62398602 53.48538898 -48.9140625 52.1953125 C-48.58006858 48.88243102 -47.26701498 47.15541393 -45 44.8046875 C-44.40767578 44.18207031 -43.81535156 43.55945313 -43.20507812 42.91796875 C-42.25665039 41.94150391 -42.25665039 41.94150391 -41.2890625 40.9453125 C-39.99391827 39.5867696 -38.69963571 38.22740469 -37.40625 36.8671875 C-36.82214355 36.2597168 -36.23803711 35.65224609 -35.63623047 35.02636719 C-33.30970492 32.55274349 -31.09612315 29.98872999 -28.8828125 27.4140625 C-25.35502431 23.43830121 -21.69000414 19.58848493 -18.05371094 15.7121582 C-14.33934897 11.74499937 -10.68432571 7.74152186 -7.1484375 3.61328125 C-4.18477524 0.20882112 -4.18477524 0.20882112 0 0 Z " fill="#7452E5" transform="translate(154.9140625,100.8046875)"/>
<path d="M0 0 C6.11418419 -1.1569547 12.65781483 -2.25891016 18.08496094 1.40917969 C22.31021375 5.21376312 25.88859252 9.5793501 29.42089844 14.02197266 C31.36975397 16.46316429 33.44777043 18.76438982 35.5625 21.0625 C36.24183594 21.82433594 36.92117188 22.58617187 37.62109375 23.37109375 C40.13721266 26.15163238 42.69137836 28.89306675 45.25537109 31.62939453 C47.65440738 34.19007912 50.04450203 36.75903813 52.43505859 39.32763672 C53.7759515 40.76057219 55.13076013 42.18046387 56.48828125 43.59765625 C57.13152344 44.28730469 57.77476562 44.97695312 58.4375 45.6875 C58.97246094 46.24824219 59.50742187 46.80898437 60.05859375 47.38671875 C61 49 61 49 60.91796875 50.94140625 C59.70272003 53.66666614 58.04442056 55.20559689 55.875 57.25 C53.0701498 59.96267202 50.3461368 62.6572106 47.8125 65.625 C43.81741451 70.27820863 39.61297782 74.7287758 35.41992188 79.20263672 C30.64250043 84.30254685 25.91363397 89.44410785 21.20703125 94.609375 C20.11455078 95.79273438 20.11455078 95.79273438 19 97 C18.57460937 97.59941406 18.14921875 98.19882813 17.7109375 98.81640625 C14.75044154 100.86442058 11.27514698 100.30544169 7.8125 100.1875 C7.06291016 100.17396484 6.31332031 100.16042969 5.54101562 100.14648438 C3.69370233 100.11118539 1.84675934 100.05737917 0 100 C2.49071699 95.41917086 5.68596686 91.74941642 9.125 87.875 C13.7485024 82.60698226 18.26488033 77.27974062 22.671875 71.828125 C25.98591298 67.80234731 29.4026976 63.86590175 32.84008789 59.94506836 C35.87097765 56.45217435 38.51489986 52.90178431 41 49 C40.45472656 48.40574219 39.90945313 47.81148437 39.34765625 47.19921875 C35.27614316 42.72403427 31.30526067 38.20456389 27.5 33.5 C24.5918662 29.9052235 21.61458668 26.41739372 18.5 23 C14.51185263 18.62140463 10.74350129 14.09660579 7.01953125 9.4921875 C5.34920974 7.43093968 3.65475103 5.39700262 1.9375 3.375 C0 1 0 1 0 0 Z " fill="#4429C7" transform="translate(224,149)"/>
<path d="M0 0 C16.17 0 32.34 0 49 0 C49 0.33 49 0.66 49 1 C48.26475098 0.97268799 47.52950195 0.94537598 46.77197266 0.91723633 C32.42695319 -0.22572579 32.42695319 -0.22572579 19.36328125 4.12890625 C16.87322108 6.94776663 14.94061869 9.78190904 13 13 C11.56788359 14.79210195 10.10914174 16.56324012 8.625 18.3125 C7.89539063 19.21613281 7.16578125 20.11976562 6.4140625 21.05078125 C3.66135529 24.41371644 0.83733369 27.70853217 -2 31 C-3.51455144 32.76585014 -5.02799829 34.53263999 -6.54101562 36.29980469 C-7.49546513 37.4120514 -8.45240146 38.52217015 -9.41210938 39.62988281 C-10.70072361 41.12024978 -11.97574338 42.62233889 -13.25 44.125 C-13.97703125 44.97320312 -14.7040625 45.82140625 -15.453125 46.6953125 C-17.3715304 49.09092922 -17.3715304 49.09092922 -17 53 C-15.47452836 55.38843106 -15.47452836 55.38843106 -13.3125 57.8125 C-12.49007812 58.781875 -11.66765625 59.75125 -10.8203125 60.75 C-9.88108006 61.83408919 -8.94093327 62.91738671 -8 64 C-6.97634242 65.18731029 -5.9529124 66.37481681 -4.9296875 67.5625 C-2.74170803 70.09644061 -0.5468296 72.62420795 1.65234375 75.1484375 C5.41902497 79.47480878 9.14896706 83.83219017 12.87524414 88.19335938 C16.17219014 92.04787303 19.50673339 95.86585228 22.890625 99.64453125 C24 101 24 101 24 102 C21.36328125 102.36328125 21.36328125 102.36328125 18 102 C15.76438187 100.10228906 14.05329914 98.3989318 12.1875 96.1875 C11.66687988 95.59727051 11.14625977 95.00704102 10.60986328 94.39892578 C6.69287824 89.92391769 2.93393778 85.31663731 -0.7890625 80.6796875 C-3.1093495 77.86746685 -5.53071134 75.18202737 -8 72.5 C-14.34066727 65.60625272 -20.15498462 58.31282194 -26 51 C-25.20078125 50.07960937 -24.4015625 49.15921875 -23.578125 48.2109375 C-8.65431395 31.04431221 -8.65431395 31.04431221 5.88671875 13.5546875 C9.15271505 9.60651453 12.56906247 5.80522163 16 2 C10.72 1.67 5.44 1.34 0 1 C0 0.67 0 0.34 0 0 Z " fill="#F5F4FC" transform="translate(151,100)"/>
<path d="M0 0 C6 0 6 0 8.16015625 2.125 C8.78792969 3.07375 9.41570312 4.0225 10.0625 5 C10.69285156 5.928125 11.32320312 6.85625 11.97265625 7.8125 C14.33608229 11.52840684 16.66597311 15.26555697 19 19 C19.33 12.73 19.66 6.46 20 0 C21.98 0 23.96 0 26 0 C26 10.23 26 20.46 26 31 C20 31 20 31 17.83984375 28.875 C17.21207031 27.92625 16.58429688 26.9775 15.9375 26 C15.30714844 25.071875 14.67679688 24.14375 14.02734375 23.1875 C11.66391771 19.47159316 9.33402689 15.73444303 7 12 C6.67 18.27 6.34 24.54 6 31 C4.02 31 2.04 31 0 31 C0 20.77 0 10.54 0 0 Z " fill="#FFFFFF" transform="translate(1118,259)"/>
<path d="M0 0 C4.49212843 3.8503958 6.08682856 7.24569721 6.625 13.19921875 C6.625 17.69516667 5.25679018 21.18081662 3 25 C-0.72593409 28.52983229 -4.53365307 30.12980766 -9.68359375 30.34765625 C-14.84999773 29.99045125 -18.45803113 28.80259968 -22.375 25.25 C-25.70760108 20.47430998 -27.21312431 16.11687017 -26.375 10.25 C-24.4318464 4.45328898 -21.91312347 1.13443931 -16.375 -1.75 C-10.67591815 -3.56440157 -5.24179138 -2.7179659 0 0 Z M-17.375 5.25 C-20.21327391 9.36060359 -20.8809767 12.53761724 -20.00390625 17.34765625 C-18.87869764 20.75123757 -17.30310972 22.25639338 -14.375 24.25 C-10.12539523 25.2201118 -7.25193754 24.76472421 -3.5 22.5625 C-0.37550734 19.16231681 0.69338161 16.89115861 0.5 12.25 C-0.50969167 8.7882 -1.91447415 6.85964863 -4.375 4.25 C-8.43263629 2.22118186 -13.7738017 2.42048705 -17.375 5.25 Z " fill="#FFFFFF" transform="translate(752.375,260.75)"/>
<path d="M0 0 C4.49212843 3.8503958 6.08682856 7.24569721 6.625 13.19921875 C6.625 17.69516667 5.25679018 21.18081662 3 25 C-0.72593409 28.52983229 -4.53365307 30.12980766 -9.68359375 30.34765625 C-14.84999773 29.99045125 -18.45803113 28.80259968 -22.375 25.25 C-25.70760108 20.47430998 -27.21312431 16.11687017 -26.375 10.25 C-24.4318464 4.45328898 -21.91312347 1.13443931 -16.375 -1.75 C-10.67591815 -3.56440157 -5.24179138 -2.7179659 0 0 Z M-17.375 5.25 C-20.21327391 9.36060359 -20.8809767 12.53761724 -20.00390625 17.34765625 C-18.87869764 20.75123757 -17.30310972 22.25639338 -14.375 24.25 C-10.12539523 25.2201118 -7.25193754 24.76472421 -3.5 22.5625 C-0.37550734 19.16231681 0.69338161 16.89115861 0.5 12.25 C-0.50969167 8.7882 -1.91447415 6.85964863 -4.375 4.25 C-8.43263629 2.22118186 -13.7738017 2.42048705 -17.375 5.25 Z " fill="#FFFFFF" transform="translate(536.375,260.75)"/>
<path d="M0 0 C4.49212843 3.8503958 6.08682856 7.24569721 6.625 13.19921875 C6.625 17.69516667 5.25679018 21.18081662 3 25 C-0.72593409 28.52983229 -4.53365307 30.12980766 -9.68359375 30.34765625 C-14.84999773 29.99045125 -18.45803113 28.80259968 -22.375 25.25 C-25.70760108 20.47430998 -27.21312431 16.11687017 -26.375 10.25 C-24.4318464 4.45328898 -21.91312347 1.13443931 -16.375 -1.75 C-10.67591815 -3.56440157 -5.24179138 -2.7179659 0 0 Z M-17.375 5.25 C-20.21327391 9.36060359 -20.8809767 12.53761724 -20.00390625 17.34765625 C-18.87869764 20.75123757 -17.30310972 22.25639338 -14.375 24.25 C-10.12539523 25.2201118 -7.25193754 24.76472421 -3.5 22.5625 C-0.37550734 19.16231681 0.69338161 16.89115861 0.5 12.25 C-0.50969167 8.7882 -1.91447415 6.85964863 -4.375 4.25 C-8.43263629 2.22118186 -13.7738017 2.42048705 -17.375 5.25 Z " fill="#FFFFFF" transform="translate(484.375,260.75)"/>
<path d="M0 0 C2.701875 -0.0825 5.40375 -0.165 8.1875 -0.25 C9.02949951 -0.28641602 9.87149902 -0.32283203 10.73901367 -0.36035156 C14.60184219 -0.41728616 16.6076773 -0.22910835 20.0234375 1.765625 C22.12564659 4.14203528 22.6250161 4.90295982 22.4375 8 C22.24848238 11.0701044 21.73622064 13.39566904 20 16 C20.7425 16.5259375 20.7425 16.5259375 21.5 17.0625 C23 19 23 19 23.5 22.375 C23 26 23 26 21.05078125 28.70703125 C16.85260692 31.86238122 13.77168427 31.57131288 8.6875 31.3125 C4.3871875 31.1578125 4.3871875 31.1578125 0 31 C0 20.77 0 10.54 0 0 Z M6 4 C6 6.97 6 9.94 6 13 C10.03202336 13.35131202 10.03202336 13.35131202 14 13 C16.08216876 10.6450037 16.08216876 10.6450037 17 8 C15.37921338 4.82990528 15.37921338 4.82990528 12.8359375 4.48828125 C12.02382813 4.43027344 11.21171875 4.37226563 10.375 4.3125 C8.93125 4.209375 7.4875 4.10625 6 4 Z M6 18 C6 20.97 6 23.94 6 27 C7.8871875 27.061875 7.8871875 27.061875 9.8125 27.125 C10.52019531 27.14820313 11.22789062 27.17140625 11.95703125 27.1953125 C14.31359719 27.13254462 14.31359719 27.13254462 17 25 C17.41666667 22.5 17.41666667 22.5 17 20 C15.21342243 17.78629949 15.21342243 17.78629949 12.8359375 17.8046875 C9.41796875 17.90234375 9.41796875 17.90234375 6 18 Z " fill="#FFFFFF" transform="translate(905,259)"/>
<path d="M0 0 C2.701875 -0.0825 5.40375 -0.165 8.1875 -0.25 C9.02949951 -0.28641602 9.87149902 -0.32283203 10.73901367 -0.36035156 C14.60184219 -0.41728616 16.6076773 -0.22910835 20.0234375 1.765625 C22.12564659 4.14203528 22.6250161 4.90295982 22.4375 8 C22.24848238 11.0701044 21.73622064 13.39566904 20 16 C20.7425 16.5259375 20.7425 16.5259375 21.5 17.0625 C23 19 23 19 23.5 22.375 C23 26 23 26 21.05078125 28.70703125 C16.85260692 31.86238122 13.77168427 31.57131288 8.6875 31.3125 C4.3871875 31.1578125 4.3871875 31.1578125 0 31 C0 20.77 0 10.54 0 0 Z M6 4 C6 6.97 6 9.94 6 13 C10.03202336 13.35131202 10.03202336 13.35131202 14 13 C16.08216876 10.6450037 16.08216876 10.6450037 17 8 C15.37921338 4.82990528 15.37921338 4.82990528 12.8359375 4.48828125 C12.02382813 4.43027344 11.21171875 4.37226563 10.375 4.3125 C8.93125 4.209375 7.4875 4.10625 6 4 Z M6 18 C6 20.97 6 23.94 6 27 C7.8871875 27.061875 7.8871875 27.061875 9.8125 27.125 C10.52019531 27.14820313 11.22789062 27.17140625 11.95703125 27.1953125 C14.31359719 27.13254462 14.31359719 27.13254462 17 25 C17.41666667 22.5 17.41666667 22.5 17 20 C15.21342243 17.78629949 15.21342243 17.78629949 12.8359375 17.8046875 C9.41796875 17.90234375 9.41796875 17.90234375 6 18 Z " fill="#FFFFFF" transform="translate(414,259)"/>
<path d="M0 0 C2.536875 -0.061875 5.07375 -0.12375 7.6875 -0.1875 C8.47729248 -0.21481201 9.26708496 -0.24212402 10.08081055 -0.27026367 C14.60318145 -0.32344113 17.43303549 0.18325747 21 3 C22.60086627 6.20173254 22.49917089 9.52577059 22 13 C20.20636089 15.8100346 18.98119065 17.50940468 16 19 C19.465 24.94 19.465 24.94 23 31 C17.91307753 31.8770556 17.91307753 31.8770556 15 31 C12.17371918 27.7361778 9 23.45637368 9 19 C8.01 19 7.02 19 6 19 C6 22.96 6 26.92 6 31 C4.02 31 2.04 31 0 31 C0 20.77 0 10.54 0 0 Z M6 4 C6 7.3 6 10.6 6 14 C10.0100934 14.17864631 10.0100934 14.17864631 14 14 C16.20857238 12.17213728 16.20857238 12.17213728 16.4375 9.5625 C16.25393842 6.80971148 16.25393842 6.80971148 13.8125 5.1875 C10.74111181 3.67585664 10.74111181 3.67585664 6 4 Z " fill="#FFFFFF" transform="translate(828,259)"/>
<path d="M0 0 C1.98 0 3.96 0 6 0 C6.33 8.25 6.66 16.5 7 25 C9.97 25 12.94 25 16 25 C18.15749784 21.76375324 18.28360488 20.65605934 18.4140625 16.89453125 C18.45273437 15.91162109 18.49140625 14.92871094 18.53125 13.91601562 C18.5621875 12.89185547 18.593125 11.86769531 18.625 10.8125 C18.66367187 9.77673828 18.70234375 8.74097656 18.7421875 7.67382812 C18.83648296 5.11606378 18.92208202 2.55830713 19 0 C20.98 0 22.96 0 25 0 C25.08736736 3.72901814 25.14051482 7.45777165 25.1875 11.1875 C25.21263672 12.24259766 25.23777344 13.29769531 25.26367188 14.38476562 C25.27333984 15.40634766 25.28300781 16.42792969 25.29296875 17.48046875 C25.3086792 18.41785889 25.32438965 19.35524902 25.34057617 20.32104492 C24.83912338 24.26544746 23.04478991 26.87484163 20.375 29.75 C16.70721313 31.68041414 13.12334078 32.11453724 9 32 C5.36094619 30.78698206 3.61016346 29.8373568 1.35424805 26.74145508 C-0.180282 23.63504839 -0.34821425 21.70535508 -0.29296875 18.26171875 C-0.28330078 17.19501953 -0.27363281 16.12832031 -0.26367188 15.02929688 C-0.23853516 13.92650391 -0.21339844 12.82371094 -0.1875 11.6875 C-0.17396484 10.56537109 -0.16042969 9.44324219 -0.14648438 8.28710938 C-0.1112138 5.52424771 -0.06192235 2.76237171 0 0 Z " fill="#FFFFFF" transform="translate(951,259)"/>
<path d="M0 0 C1.98 0 3.96 0 6 0 C6.33 8.25 6.66 16.5 7 25 C9.97 25 12.94 25 16 25 C18.15749784 21.76375324 18.28360488 20.65605934 18.4140625 16.89453125 C18.45273437 15.91162109 18.49140625 14.92871094 18.53125 13.91601562 C18.5621875 12.89185547 18.593125 11.86769531 18.625 10.8125 C18.66367187 9.77673828 18.70234375 8.74097656 18.7421875 7.67382812 C18.83648296 5.11606378 18.92208202 2.55830713 19 0 C20.98 0 22.96 0 25 0 C25.08736736 3.72901814 25.14051482 7.45777165 25.1875 11.1875 C25.21263672 12.24259766 25.23777344 13.29769531 25.26367188 14.38476562 C25.27333984 15.40634766 25.28300781 16.42792969 25.29296875 17.48046875 C25.3086792 18.41785889 25.32438965 19.35524902 25.34057617 20.32104492 C24.83912338 24.26544746 23.04478991 26.87484163 20.375 29.75 C16.70721313 31.68041414 13.12334078 32.11453724 9 32 C5.36094619 30.78698206 3.61016346 29.8373568 1.35424805 26.74145508 C-0.180282 23.63504839 -0.34821425 21.70535508 -0.29296875 18.26171875 C-0.28330078 17.19501953 -0.27363281 16.12832031 -0.26367188 15.02929688 C-0.23853516 13.92650391 -0.21339844 12.82371094 -0.1875 11.6875 C-0.17396484 10.56537109 -0.16042969 9.44324219 -0.14648438 8.28710938 C-0.1112138 5.52424771 -0.06192235 2.76237171 0 0 Z " fill="#FFFFFF" transform="translate(780,259)"/>
<path d="M0 0 C2 2.625 2 2.625 2 5.625 C-1.3125 5.8125 -1.3125 5.8125 -5 5.625 C-6.625 4.125 -6.625 4.125 -8 2.625 C-10.62570704 2.37430087 -10.62570704 2.37430087 -13 2.625 C-13 4.275 -13 5.925 -13 7.625 C-11.4840625 8.2746875 -11.4840625 8.2746875 -9.9375 8.9375 C-9.30328125 9.21722656 -8.6690625 9.49695313 -8.015625 9.78515625 C-6.03151082 10.64608994 -6.03151082 10.64608994 -4.046875 11.24609375 C-2.1875 11.875 -2.1875 11.875 1 13.625 C2.68930921 17.2739079 3.2695768 19.43886207 2.375 23.375 C0.35996297 26.67233332 -1.23248951 28.18733074 -5.05078125 29.1328125 C-10.20660021 29.94734524 -13.58376916 29.74867547 -18 26.625 C-19.80935423 23.99321203 -20 22.8638234 -20 19.625 C-17.1875 19.375 -17.1875 19.375 -14 19.625 C-12.125 21.625 -12.125 21.625 -11 23.625 C-9.02 23.295 -7.04 22.965 -5 22.625 C-4.67 21.635 -4.34 20.645 -4 19.625 C-6.40792793 16.75766476 -8.39368515 16.07644715 -12 15.25 C-15.33480476 14.30554435 -16.7311792 13.9015014 -19.1875 11.375 C-20.27629731 7.68983988 -20.00872253 5.32364927 -19 1.625 C-17.236218 -0.68616263 -15.87672889 -1.9679473 -13.25 -3.1875 C-7.76854935 -3.64428755 -4.29022015 -3.39642429 0 0 Z " fill="#FFFFFF" transform="translate(1272,261.375)"/>
<path d="M0 0 C2 2.625 2 2.625 2 5.625 C-1.3125 5.8125 -1.3125 5.8125 -5 5.625 C-6.625 4.125 -6.625 4.125 -8 2.625 C-10.62570704 2.37430087 -10.62570704 2.37430087 -13 2.625 C-13 4.275 -13 5.925 -13 7.625 C-11.4840625 8.2746875 -11.4840625 8.2746875 -9.9375 8.9375 C-9.30328125 9.21722656 -8.6690625 9.49695313 -8.015625 9.78515625 C-6.03151082 10.64608994 -6.03151082 10.64608994 -4.046875 11.24609375 C-2.1875 11.875 -2.1875 11.875 1 13.625 C2.68930921 17.2739079 3.2695768 19.43886207 2.375 23.375 C0.35996297 26.67233332 -1.23248951 28.18733074 -5.05078125 29.1328125 C-10.20660021 29.94734524 -13.58376916 29.74867547 -18 26.625 C-19.80935423 23.99321203 -20 22.8638234 -20 19.625 C-17.1875 19.375 -17.1875 19.375 -14 19.625 C-12.125 21.625 -12.125 21.625 -11 23.625 C-9.02 23.295 -7.04 22.965 -5 22.625 C-4.67 21.635 -4.34 20.645 -4 19.625 C-6.40792793 16.75766476 -8.39368515 16.07644715 -12 15.25 C-15.33480476 14.30554435 -16.7311792 13.9015014 -19.1875 11.375 C-20.27629731 7.68983988 -20.00872253 5.32364927 -19 1.625 C-17.236218 -0.68616263 -15.87672889 -1.9679473 -13.25 -3.1875 C-7.76854935 -3.64428755 -4.29022015 -3.39642429 0 0 Z " fill="#FFFFFF" transform="translate(1227,261.375)"/>
<path d="M0 0 C2 2.625 2 2.625 2 5.625 C-1.3125 5.8125 -1.3125 5.8125 -5 5.625 C-6.625 4.125 -6.625 4.125 -8 2.625 C-10.62570704 2.37430087 -10.62570704 2.37430087 -13 2.625 C-13 4.275 -13 5.925 -13 7.625 C-11.4840625 8.2746875 -11.4840625 8.2746875 -9.9375 8.9375 C-9.30328125 9.21722656 -8.6690625 9.49695313 -8.015625 9.78515625 C-6.03151082 10.64608994 -6.03151082 10.64608994 -4.046875 11.24609375 C-2.1875 11.875 -2.1875 11.875 1 13.625 C2.68930921 17.2739079 3.2695768 19.43886207 2.375 23.375 C0.35996297 26.67233332 -1.23248951 28.18733074 -5.05078125 29.1328125 C-10.20660021 29.94734524 -13.58376916 29.74867547 -18 26.625 C-19.80935423 23.99321203 -20 22.8638234 -20 19.625 C-17.1875 19.375 -17.1875 19.375 -14 19.625 C-12.125 21.625 -12.125 21.625 -11 23.625 C-9.02 23.295 -7.04 22.965 -5 22.625 C-4.67 21.635 -4.34 20.645 -4 19.625 C-6.40792793 16.75766476 -8.39368515 16.07644715 -12 15.25 C-15.33480476 14.30554435 -16.7311792 13.9015014 -19.1875 11.375 C-20.27629731 7.68983988 -20.00872253 5.32364927 -19 1.625 C-17.236218 -0.68616263 -15.87672889 -1.9679473 -13.25 -3.1875 C-7.76854935 -3.64428755 -4.29022015 -3.39642429 0 0 Z " fill="#FFFFFF" transform="translate(1063,261.375)"/>
<path d="M0 0 C2 2.625 2 2.625 2 5.625 C-1.3125 5.8125 -1.3125 5.8125 -5 5.625 C-6.625 4.125 -6.625 4.125 -8 2.625 C-10.62570704 2.37430087 -10.62570704 2.37430087 -13 2.625 C-13 4.275 -13 5.925 -13 7.625 C-11.4840625 8.2746875 -11.4840625 8.2746875 -9.9375 8.9375 C-9.30328125 9.21722656 -8.6690625 9.49695313 -8.015625 9.78515625 C-6.03151082 10.64608994 -6.03151082 10.64608994 -4.046875 11.24609375 C-2.1875 11.875 -2.1875 11.875 1 13.625 C2.68930921 17.2739079 3.2695768 19.43886207 2.375 23.375 C0.35996297 26.67233332 -1.23248951 28.18733074 -5.05078125 29.1328125 C-10.20660021 29.94734524 -13.58376916 29.74867547 -18 26.625 C-19.80935423 23.99321203 -20 22.8638234 -20 19.625 C-17.1875 19.375 -17.1875 19.375 -14 19.625 C-12.125 21.625 -12.125 21.625 -11 23.625 C-9.02 23.295 -7.04 22.965 -5 22.625 C-4.67 21.635 -4.34 20.645 -4 19.625 C-6.40792793 16.75766476 -8.39368515 16.07644715 -12 15.25 C-15.33480476 14.30554435 -16.7311792 13.9015014 -19.1875 11.375 C-20.27629731 7.68983988 -20.00872253 5.32364927 -19 1.625 C-17.236218 -0.68616263 -15.87672889 -1.9679473 -13.25 -3.1875 C-7.76854935 -3.64428755 -4.29022015 -3.39642429 0 0 Z " fill="#FFFFFF" transform="translate(1018,261.375)"/>
<path d="M0 0 C2 2.625 2 2.625 2 5.625 C-1.3125 5.8125 -1.3125 5.8125 -5 5.625 C-6.625 4.125 -6.625 4.125 -8 2.625 C-10.62570704 2.37430087 -10.62570704 2.37430087 -13 2.625 C-13 4.275 -13 5.925 -13 7.625 C-11.4840625 8.2746875 -11.4840625 8.2746875 -9.9375 8.9375 C-9.30328125 9.21722656 -8.6690625 9.49695313 -8.015625 9.78515625 C-6.03151082 10.64608994 -6.03151082 10.64608994 -4.046875 11.24609375 C-2.1875 11.875 -2.1875 11.875 1 13.625 C2.68930921 17.2739079 3.2695768 19.43886207 2.375 23.375 C0.35996297 26.67233332 -1.23248951 28.18733074 -5.05078125 29.1328125 C-10.20660021 29.94734524 -13.58376916 29.74867547 -18 26.625 C-19.80935423 23.99321203 -20 22.8638234 -20 19.625 C-17.1875 19.375 -17.1875 19.375 -14 19.625 C-12.125 21.625 -12.125 21.625 -11 23.625 C-9.02 23.295 -7.04 22.965 -5 22.625 C-4.67 21.635 -4.34 20.645 -4 19.625 C-6.40792793 16.75766476 -8.39368515 16.07644715 -12 15.25 C-15.33480476 14.30554435 -16.7311792 13.9015014 -19.1875 11.375 C-20.27629731 7.68983988 -20.00872253 5.32364927 -19 1.625 C-17.236218 -0.68616263 -15.87672889 -1.9679473 -13.25 -3.1875 C-7.76854935 -3.64428755 -4.29022015 -3.39642429 0 0 Z " fill="#FFFFFF" transform="translate(584,261.375)"/>
<path d="M0 0 C5.94 0 11.88 0 18 0 C18 1.32 18 2.64 18 4 C14.04 4 10.08 4 6 4 C6 6.97 6 9.94 6 13 C9.3 13 12.6 13 16 13 C16 14.65 16 16.3 16 18 C12.7 18 9.4 18 6 18 C6 20.97 6 23.94 6 27 C9.96 27 13.92 27 18 27 C18 28.32 18 29.64 18 31 C12.06 31 6.12 31 0 31 C0 20.77 0 10.54 0 0 Z " fill="#FFFFFF" transform="translate(1167,259)"/>
<path d="M0 0 C2.31 0 4.62 0 7 0 C8.98 3.96 10.96 7.92 13 12 C15.23574822 9.76425178 16.24368358 7.71033371 17.625 4.875 C18.07101562 3.96492188 18.51703125 3.05484375 18.9765625 2.1171875 C19.48316406 1.06917969 19.48316406 1.06917969 20 0 C21.98 0 23.96 0 26 0 C25.23939977 3.50289059 23.82149825 6.3307781 22.1171875 9.484375 C18.26763313 16.64508453 15.71790403 22.6781688 16 31 C14.35 31 12.7 31 11 31 C11.04382813 30.42636719 11.08765625 29.85273438 11.1328125 29.26171875 C11.10221413 19.1795551 5.77065478 11.18810342 0.90209961 2.68310547 C0 1 0 1 0 0 Z " fill="#FFFFFF" transform="translate(680,259)"/>
<path d="M0 0 C7.59 0 15.18 0 23 0 C23 1.32 23 2.64 23 4 C20.03 4 17.06 4 14 4 C14 12.91 14 21.82 14 31 C12.35 31 10.7 31 9 31 C9 22.09 9 13.18 9 4 C6.03 4 3.06 4 0 4 C0 2.68 0 1.36 0 0 Z " fill="#FFFFFF" transform="translate(607,259)"/>
<path d="M0 0 C1.98 0 3.96 0 6 0 C6 10.23 6 20.46 6 31 C4.02 31 2.04 31 0 31 C0 20.77 0 10.54 0 0 Z " fill="#FFFFFF" transform="translate(1088,259)"/>
</svg>
